<svg width="870" height="400" viewBox="0 0 870 400" fill="none" xmlns="http://www.w3.org/2000/svg">
<g clip-path="url(#clip0_104_5)">
<path d="M216.371 267.95C216.37 268.23 216.143 268.459 215.863 268.461L208.867 268.522C208.571 268.525 208.33 268.287 208.327 267.991C208.324 267.694 208.563 267.452 208.86 267.452C211.346 267.446 214.612 267.438 215.859 267.435C216.143 267.435 216.372 267.665 216.371 267.95Z" fill="white"/>
<path d="M230.34 388.859L218.528 199.328" stroke="#774F00" stroke-width="8"/>
<path d="M358.121 285.101H209.396V288.322H358.121V285.101Z" fill="#F3AD43"/>
<path d="M358.121 314.631H209.396V317.852H358.121V314.631Z" fill="#F3AD43"/>
<path d="M358.121 341.477H209.396V344.698H358.121V341.477Z" fill="#F3AD43"/>
<path d="M49.2631 207.514L220.535 206.051" stroke="#30BA0E" stroke-width="14"/>
<path d="M604.575 158.417C604.575 158.699 604.344 158.928 604.064 158.93L599.2 158.973C598.905 158.976 598.663 158.738 598.663 158.443C598.658 158.146 598.899 157.904 599.195 157.904C600.918 157.904 603.087 157.904 604.059 157.904C604.344 157.904 604.575 158.134 604.575 158.417Z" fill="white"/>
<path d="M681.89 158.417C681.89 158.699 681.659 158.928 681.38 158.93L676.515 158.973C676.22 158.976 675.979 158.738 675.979 158.443C675.973 158.146 676.215 157.904 676.51 157.904C678.234 157.904 680.403 157.904 681.375 157.904C681.659 157.904 681.89 158.134 681.89 158.417Z" fill="white"/>
<path d="M216.383 199.517C216.363 199.234 216.576 198.99 216.857 198.969L220.091 198.725C220.384 198.703 220.641 198.923 220.663 199.217C220.685 199.514 220.461 199.771 220.164 199.79C219.021 199.862 217.653 199.948 216.928 199.995C216.645 200.012 216.403 199.799 216.383 199.517Z" fill="white"/>
<path d="M49.331 201.055C49.3667 200.775 49.6221 200.576 49.9027 200.609L53.1235 200.999C53.4161 201.034 53.6247 201.3 53.5893 201.592C53.5537 201.887 53.2841 202.097 52.9895 202.057C51.853 201.906 50.4927 201.725 49.7723 201.63C49.4919 201.592 49.2953 201.336 49.331 201.055Z" fill="white"/>
<path d="M602.366 166.156C603.868 165.091 604.223 163.01 603.158 161.508C602.093 160.006 600.012 159.651 598.509 160.716L394.538 305.294C393.035 306.359 392.681 308.44 393.746 309.942C394.811 311.445 396.892 311.799 398.394 310.734L602.366 166.156Z" fill="#1441E0"/>
<path d="M439.732 337.718H429.53V345.235H439.732V337.718Z" fill="#F3AD43"/>
<path d="M449.933 331.275H439.732V338.792H449.933V331.275Z" fill="#F3AD43"/>
<path d="M462.282 321.074H452.081V328.591H462.282V321.074Z" fill="#F3AD43"/>
<path d="M449.933 331.275H439.732V338.792H449.933V331.275Z" fill="#F3AD43"/>
<path d="M482.685 307.114H472.483V314.631H482.685V307.114Z" fill="#F3AD43"/>
<path d="M492.886 299.597H482.685V307.114H492.886V299.597Z" fill="#F3AD43"/>
<path d="M503.087 292.081H492.886V299.597H503.087V292.081Z" fill="#F3AD43"/>
<path d="M514.899 284.564H504.698V292.081H514.899V284.564Z" fill="#F3AD43"/>
<path d="M525.101 277.047H514.899V284.564H525.101V277.047Z" fill="#F3AD43"/>
<path d="M535.302 269.53H525.101V277.047H535.302V269.53Z" fill="#F3AD43"/>
<path d="M545.503 262.55H535.302V270.067H545.503V262.55Z" fill="#F3AD43"/>
<path d="M555.705 255.034H545.503V262.55H555.705V255.034Z" fill="#F3AD43"/>
<path d="M565.906 248.054H555.705V255.57H565.906V248.054Z" fill="#F3AD43"/>
<path d="M578.792 238.926H568.591V246.443H578.792V238.926Z" fill="#F3AD43"/>
<path d="M588.993 231.409H578.792V238.926H588.993V231.409Z" fill="#F3AD43"/>
<path d="M599.195 224.966H588.993V232.483H599.195V224.966Z" fill="#F3AD43"/>
<path d="M462.282 314.631H472.483L470.604 320L462.282 322.148V314.631Z" fill="#F3AD43"/>
<path d="M409.127 359.195H398.926V366.711H409.127V359.195Z" fill="#F3AD43"/>
<path d="M419.329 351.678H409.128V359.195H419.329V351.678Z" fill="#F3AD43"/>
<path d="M409.127 359.195H398.926V366.711H409.127V359.195Z" fill="#F3AD43"/>
<path d="M419.329 345.235H429.53L426.04 348.188L419.329 352.752V345.235Z" fill="#F3AD43"/>
<path d="M637.589 342.76C637.616 342.511 637.815 342.314 638.062 342.286L639.957 342.075C640.462 342.018 640.757 342.629 640.397 342.988L638.287 345.096C637.933 345.455 637.321 345.161 637.374 344.657L637.589 342.76Z" fill="#774F00"/>
<path d="M608.859 337.718C608.859 335.764 610.932 334.508 612.666 335.414C613.525 335.862 614.062 336.75 614.062 337.718V343.796C614.062 345.278 615.259 346.481 616.746 346.481H619.893C623.173 346.481 623.587 351.242 620.354 351.809L612.005 353.274C610.362 353.561 608.859 352.297 608.859 350.629V343.76V337.718Z" fill="#9F6C3C"/>
<path d="M759.195 211.544H780.671V292.349L783.893 333.96L788.725 373.154H748.456L754.094 333.96L759.195 292.349V211.544Z" fill="#9F6C3C"/>
<path d="M676.51 208.859C690.11 208.859 702.314 217.201 707.248 229.87L723.758 272.215L734.679 299.801C740.902 315.528 750.926 329.469 763.844 340.382C782.341 355.997 805.761 364.564 829.965 364.564H846.174" stroke="#541A70" stroke-width="39" stroke-linecap="round"/>
<path d="M678.185 204.977C691.694 204.919 703.834 213.21 708.698 225.814L724.924 267.892L734.932 293.443C741.536 310.317 752.252 325.277 766.099 336.969C783.528 351.684 805.133 360.558 827.871 362.343L845.906 363.758" stroke="#8725B5" stroke-width="39" stroke-linecap="round"/>
<path d="M419.866 2.68457H437.584V15.0336H419.866V2.68457Z" fill="#541A70"/>
<path d="M404.295 24.1611L451.723 103.49H356.867L404.295 24.1611Z" fill="#F3AD43"/>
<path d="M449.933 102.55H441.879V373.154H449.933V102.55Z" fill="#9F6C3C"/>
<path d="M366.174 103.087H358.121V373.691H366.174V103.087Z" fill="#9F6C3C"/>
<path d="M216.376 267.919H208.322V371.544H216.376V267.919Z" fill="#9F6C3C"/>
<path d="M439.732 277.584C439.732 274.915 441.895 272.752 444.564 272.752H447.248C449.917 272.752 452.081 274.915 452.081 277.584V332.886C452.081 335.555 449.917 337.718 447.248 337.718H444.564C441.895 337.718 439.732 335.555 439.732 332.886V277.584Z" fill="#F5EAAE"/>
<path d="M800.268 225.503C820.284 225.503 836.51 209.518 836.51 189.799C836.51 170.08 820.284 154.094 800.268 154.094C780.253 154.094 764.027 170.08 764.027 189.799C764.027 209.518 780.253 225.503 800.268 225.503Z" fill="#16AC40"/>
<path d="M747.651 115.973C767.667 115.973 783.893 99.9876 783.893 80.2684C783.893 60.5493 767.667 44.5638 747.651 44.5638C727.635 44.5638 711.409 60.5493 711.409 80.2684C711.409 99.9876 727.635 115.973 747.651 115.973Z" fill="#16AC40"/>
<path d="M767.517 178.255C787.532 178.255 803.758 162.27 803.758 142.55C803.758 122.831 787.532 106.846 767.517 106.846C747.501 106.846 731.275 122.831 731.275 142.55C731.275 162.27 747.501 178.255 767.517 178.255Z" fill="#16AC40"/>
<path d="M752.483 234.094C772.499 234.094 788.725 218.108 788.725 198.389C788.725 178.67 772.499 162.685 752.483 162.685C732.467 162.685 716.242 178.67 716.242 198.389C716.242 218.108 732.467 234.094 752.483 234.094Z" fill="#16AC40"/>
<path d="M707.383 154.094C727.398 154.094 743.624 138.108 743.624 118.389C743.624 98.6701 727.398 82.6846 707.383 82.6846C687.367 82.6846 671.141 98.6701 671.141 118.389C671.141 138.108 687.367 154.094 707.383 154.094Z" fill="#16AC40"/>
<path d="M718.121 199.195C738.136 199.195 754.362 183.209 754.362 163.49C754.362 143.771 738.136 127.785 718.121 127.785C698.105 127.785 681.879 143.771 681.879 163.49C681.879 183.209 698.105 199.195 718.121 199.195Z" fill="#16AC40"/>
<path d="M807.785 125.638C827.801 125.638 844.027 109.652 844.027 89.9329C844.027 70.2137 827.801 54.2282 807.785 54.2282C787.77 54.2282 771.544 70.2137 771.544 89.9329C771.544 109.652 787.77 125.638 807.785 125.638Z" fill="#16AC40"/>
<path d="M824.966 178.255C844.982 178.255 861.208 162.27 861.208 142.55C861.208 122.831 844.982 106.846 824.966 106.846C804.951 106.846 788.725 122.831 788.725 142.55C788.725 162.27 804.951 178.255 824.966 178.255Z" fill="#16AC40"/>
<path d="M780.134 118.658C786.954 118.658 792.483 114.09 792.483 108.456C792.483 102.822 786.954 98.255 780.134 98.255C773.314 98.255 767.785 102.822 767.785 108.456C767.785 114.09 773.314 118.658 780.134 118.658Z" fill="#16AC40"/>
<path d="M33.298 388.523L51.3526 201.473" stroke="#774F00" stroke-width="8"/>
<path d="M69.0067 206.207L68.5516 337.478" stroke="#BAAF74" stroke-width="3"/>
<path d="M101.317 206.21L100.407 337.93" stroke="#BAAF74" stroke-width="3"/>
<path d="M155.926 206.207L155.471 337.478" stroke="#BAAF74" stroke-width="3"/>
<path d="M188.236 206.21L187.326 338.38" stroke="#BAAF74" stroke-width="3"/>
<path d="M100.403 338.557C100.403 341.652 93.1914 344.161 84.2953 344.161C75.3992 344.161 68.1879 341.652 68.1879 338.557C68.1879 335.462 75.3992 338.557 84.2953 338.557C93.1914 338.557 100.403 335.462 100.403 338.557Z" fill="#524545"/>
<path d="M187.383 338.557C187.383 341.652 180.171 344.161 171.275 344.161C162.379 344.161 155.168 341.652 155.168 338.557C155.168 335.462 162.379 338.557 171.275 338.557C180.171 338.557 187.383 335.462 187.383 338.557Z" fill="#524545"/>
<path d="M808.322 229.799C828.338 229.799 844.564 213.813 844.564 194.094C844.564 174.375 828.338 158.389 808.322 158.389C788.306 158.389 772.081 174.375 772.081 194.094C772.081 213.813 788.306 229.799 808.322 229.799Z" fill="#0E802E"/>
<path d="M755.705 120.268C775.72 120.268 791.946 104.283 791.946 84.5638C791.946 64.8446 775.72 48.8591 755.705 48.8591C735.689 48.8591 719.463 64.8446 719.463 84.5638C719.463 104.283 735.689 120.268 755.705 120.268Z" fill="#0E802E"/>
<path d="M775.57 182.55C795.586 182.55 811.812 166.565 811.812 146.846C811.812 127.126 795.586 111.141 775.57 111.141C755.555 111.141 739.329 127.126 739.329 146.846C739.329 166.565 755.555 182.55 775.57 182.55Z" fill="#0E802E"/>
<path d="M760.537 238.389C780.553 238.389 796.779 222.404 796.779 202.685C796.779 182.965 780.553 166.98 760.537 166.98C740.521 166.98 724.295 182.965 724.295 202.685C724.295 222.404 740.521 238.389 760.537 238.389Z" fill="#0E802E"/>
<path d="M715.436 158.389C735.452 158.389 751.678 142.404 751.678 122.685C751.678 102.965 735.452 86.9799 715.436 86.9799C695.421 86.9799 679.195 102.965 679.195 122.685C679.195 142.404 695.421 158.389 715.436 158.389Z" fill="#0E802E"/>
<path d="M726.174 203.49C746.19 203.49 762.416 187.504 762.416 167.785C762.416 148.066 746.19 132.081 726.174 132.081C706.159 132.081 689.933 148.066 689.933 167.785C689.933 187.504 706.159 203.49 726.174 203.49Z" fill="#0E802E"/>
<path d="M815.839 129.933C835.855 129.933 852.081 113.947 852.081 94.2282C852.081 74.509 835.855 58.5235 815.839 58.5235C795.823 58.5235 779.597 74.509 779.597 94.2282C779.597 113.947 795.823 129.933 815.839 129.933Z" fill="#0E802E"/>
<path d="M833.02 182.55C853.036 182.55 869.262 166.565 869.262 146.846C869.262 127.126 853.036 111.141 833.02 111.141C813.004 111.141 796.779 127.126 796.779 146.846C796.779 166.565 813.004 182.55 833.02 182.55Z" fill="#0E802E"/>
<path d="M788.188 122.953C795.008 122.953 800.537 118.386 800.537 112.752C800.537 107.118 795.008 102.55 788.188 102.55C781.368 102.55 775.839 107.118 775.839 112.752C775.839 118.386 781.368 122.953 788.188 122.953Z" fill="#0E802E"/>
<path d="M505.772 234.094H500.94C498.864 234.094 497.181 235.777 497.181 237.852V293.691C497.181 295.767 498.864 297.45 500.94 297.45H505.772C507.847 297.45 509.53 295.767 509.53 293.691V237.852C509.53 235.777 507.847 234.094 505.772 234.094Z" fill="#F5EAAE"/>
<path d="M562.685 190.604H562.148C558.886 190.604 556.242 193.248 556.242 196.51V249.664C556.242 252.926 558.886 255.57 562.148 255.57H562.685C565.946 255.57 568.591 252.926 568.591 249.664V196.51C568.591 193.248 565.946 190.604 562.685 190.604Z" fill="#F5EAAE"/>
<path d="M602.309 229.785L598.894 224.966L389.272 373.55L392.687 378.368L602.309 229.785Z" fill="#9F6C3C"/>
<path d="M681.879 158.389H675.973V373.154H681.879V158.389Z" fill="#9F6C3C"/>
<path d="M604.564 158.389H598.658V373.691H604.564V158.389Z" fill="#9F6C3C"/>
<path d="M601.342 167.517C601.342 164.848 603.506 162.685 606.174 162.685H674.362C677.031 162.685 679.195 164.848 679.195 167.517C679.195 170.186 677.031 172.349 674.362 172.349H606.174C603.506 172.349 601.342 170.186 601.342 167.517Z" fill="#72E82A"/>
<path d="M601.342 198.658C601.342 195.989 603.506 193.826 606.174 193.826H674.362C677.031 193.826 679.195 195.989 679.195 198.658C679.195 201.327 677.031 203.49 674.362 203.49H606.174C603.506 203.49 601.342 201.327 601.342 198.658Z" fill="#72E82A"/>
<path d="M364.027 195.973C364.027 193.304 366.19 191.141 368.859 191.141H437.047C439.716 191.141 441.879 193.304 441.879 195.973C441.879 198.642 439.716 200.805 437.047 200.805H368.859C366.19 200.805 364.027 198.642 364.027 195.973Z" fill="#72E82A"/>
<path d="M364.027 165.906C364.027 163.237 366.19 161.074 368.859 161.074H437.047C439.716 161.074 441.879 163.237 441.879 165.906C441.879 168.575 439.716 170.738 437.047 170.738H368.859C366.19 170.738 364.027 168.575 364.027 165.906Z" fill="#72E82A"/>
<path d="M601.342 183.087C601.342 180.418 603.506 178.255 606.174 178.255H674.362C677.031 178.255 679.195 180.418 679.195 183.087C679.195 185.756 677.031 187.919 674.362 187.919H606.174C603.506 187.919 601.342 185.756 601.342 183.087Z" fill="#F7DD55"/>
<path d="M364.027 149.799C364.027 147.13 366.19 144.966 368.859 144.966H437.047C439.716 144.966 441.879 147.13 441.879 149.799C441.879 152.468 439.716 154.631 437.047 154.631H368.859C366.19 154.631 364.027 152.468 364.027 149.799Z" fill="#F7DD55"/>
<path d="M375.839 75.7047C375.839 73.0357 378.002 70.8725 380.671 70.8725H426.309C428.978 70.8725 431.141 73.0357 431.141 75.7047C431.141 78.3737 428.978 80.5369 426.309 80.5369H380.671C378.002 80.5369 375.839 78.3737 375.839 75.7047Z" fill="#F7DD55"/>
<path d="M388.725 56.9128C388.725 54.2438 390.888 52.0805 393.557 52.0805H415.034C417.703 52.0805 419.866 54.2438 419.866 56.9128C419.866 59.5817 417.703 61.745 415.034 61.745H393.557C390.888 61.745 388.725 59.5817 388.725 56.9128Z" fill="#F7DD55"/>
<path d="M397.315 39.7315C397.315 37.0628 399.479 34.8993 402.148 34.8993H404.832C407.501 34.8993 409.664 37.0628 409.664 39.7315C409.664 42.4003 407.501 44.5638 404.832 44.5638H402.148C399.479 44.5638 397.315 42.4003 397.315 39.7315Z" fill="#F7DD55"/>
<path d="M364.027 94.4966C364.027 91.8277 366.19 89.6644 368.859 89.6644H437.047C439.716 89.6644 441.879 91.8277 441.879 94.4966C441.879 97.1656 439.716 99.3289 437.047 99.3289H368.859C366.19 99.3289 364.027 97.1656 364.027 94.4966Z" fill="#F7DD55"/>
<path d="M601.342 214.228C601.342 211.559 603.506 209.396 606.174 209.396H674.362C677.031 209.396 679.195 211.559 679.195 214.228C679.195 216.897 677.031 219.06 674.362 219.06H606.174C603.506 219.06 601.342 216.897 601.342 214.228Z" fill="#F7DD55"/>
<path d="M364.027 211.007C364.027 208.338 366.19 206.174 368.859 206.174H437.047C439.716 206.174 441.879 208.338 441.879 211.007C441.879 213.676 439.716 215.839 437.047 215.839H368.859C366.19 215.839 364.027 213.676 364.027 211.007Z" fill="#F7DD55"/>
<path d="M364.027 180.94C364.027 178.271 366.19 176.107 368.859 176.107H437.047C439.716 176.107 441.879 178.271 441.879 180.94C441.879 183.609 439.716 185.772 437.047 185.772H368.859C366.19 185.772 364.027 183.609 364.027 180.94Z" fill="#F7DD55"/>
<path d="M675.973 223.356H601.342V229.799H675.973V223.356Z" fill="#9F6C3C"/>
<path d="M441.879 221.208H360.805V229.262H441.879V221.208Z" fill="#9F6C3C"/>
<path d="M606.711 170.201C607.897 170.201 608.859 169.12 608.859 167.785C608.859 166.451 607.897 165.369 606.711 165.369C605.525 165.369 604.564 166.451 604.564 167.785C604.564 169.12 605.525 170.201 606.711 170.201Z" fill="black"/>
<path d="M369.396 153.02C370.582 153.02 371.544 151.938 371.544 150.604C371.544 149.27 370.582 148.188 369.396 148.188C368.21 148.188 367.248 149.27 367.248 150.604C367.248 151.938 368.21 153.02 369.396 153.02Z" fill="black"/>
<path d="M433.289 152.483C434.475 152.483 435.436 151.401 435.436 150.067C435.436 148.733 434.475 147.651 433.289 147.651C432.102 147.651 431.141 148.733 431.141 150.067C431.141 151.401 432.102 152.483 433.289 152.483Z" fill="black"/>
<path d="M369.396 183.624C370.582 183.624 371.544 182.542 371.544 181.208C371.544 179.874 370.582 178.792 369.396 178.792C368.21 178.792 367.248 179.874 367.248 181.208C367.248 182.542 368.21 183.624 369.396 183.624Z" fill="black"/>
<path d="M433.289 183.624C434.475 183.624 435.436 182.542 435.436 181.208C435.436 179.874 434.475 178.792 433.289 178.792C432.102 178.792 431.141 179.874 431.141 181.208C431.141 182.542 432.102 183.624 433.289 183.624Z" fill="black"/>
<path d="M369.396 198.121C370.582 198.121 371.544 197.039 371.544 195.705C371.544 194.37 370.582 193.289 369.396 193.289C368.21 193.289 367.248 194.37 367.248 195.705C367.248 197.039 368.21 198.121 369.396 198.121Z" fill="black"/>
<path d="M433.289 198.121C434.475 198.121 435.436 197.039 435.436 195.705C435.436 194.37 434.475 193.289 433.289 193.289C432.102 193.289 431.141 194.37 431.141 195.705C431.141 197.039 432.102 198.121 433.289 198.121Z" fill="black"/>
<path d="M369.396 214.228C370.582 214.228 371.544 213.146 371.544 211.812C371.544 210.478 370.582 209.396 369.396 209.396C368.21 209.396 367.248 210.478 367.248 211.812C367.248 213.146 368.21 214.228 369.396 214.228Z" fill="black"/>
<path d="M433.289 214.228C434.475 214.228 435.436 213.146 435.436 211.812C435.436 210.478 434.475 209.396 433.289 209.396C432.102 209.396 431.141 210.478 431.141 211.812C431.141 213.146 432.102 214.228 433.289 214.228Z" fill="black"/>
<path d="M369.396 168.054C370.582 168.054 371.544 166.972 371.544 165.638C371.544 164.303 370.582 163.221 369.396 163.221C368.21 163.221 367.248 164.303 367.248 165.638C367.248 166.972 368.21 168.054 369.396 168.054Z" fill="black"/>
<path d="M433.289 168.054C434.475 168.054 435.436 166.972 435.436 165.638C435.436 164.303 434.475 163.221 433.289 163.221C432.102 163.221 431.141 164.303 431.141 165.638C431.141 166.972 432.102 168.054 433.289 168.054Z" fill="black"/>
<path d="M606.711 185.772C607.897 185.772 608.859 184.69 608.859 183.356C608.859 182.021 607.897 180.94 606.711 180.94C605.525 180.94 604.564 182.021 604.564 183.356C604.564 184.69 605.525 185.772 606.711 185.772Z" fill="black"/>
<path d="M606.711 200.805C607.897 200.805 608.859 199.724 608.859 198.389C608.859 197.055 607.897 195.973 606.711 195.973C605.525 195.973 604.564 197.055 604.564 198.389C604.564 199.724 605.525 200.805 606.711 200.805Z" fill="black"/>
<path d="M673.826 200.805C675.012 200.805 675.973 199.724 675.973 198.389C675.973 197.055 675.012 195.973 673.826 195.973C672.639 195.973 671.678 197.055 671.678 198.389C671.678 199.724 672.639 200.805 673.826 200.805Z" fill="black"/>
<path d="M673.826 216.376C675.012 216.376 675.973 215.294 675.973 213.96C675.973 212.625 675.012 211.544 673.826 211.544C672.639 211.544 671.678 212.625 671.678 213.96C671.678 215.294 672.639 216.376 673.826 216.376Z" fill="black"/>
<path d="M606.711 216.376C607.897 216.376 608.859 215.294 608.859 213.96C608.859 212.625 607.897 211.544 606.711 211.544C605.525 211.544 604.564 212.625 604.564 213.96C604.564 215.294 605.525 216.376 606.711 216.376Z" fill="black"/>
<path d="M673.826 185.772C675.012 185.772 675.973 184.69 675.973 183.356C675.973 182.021 675.012 180.94 673.826 180.94C672.639 180.94 671.678 182.021 671.678 183.356C671.678 184.69 672.639 185.772 673.826 185.772Z" fill="black"/>
<path d="M673.826 170.201C675.012 170.201 675.973 169.12 675.973 167.785C675.973 166.451 675.012 165.369 673.826 165.369C672.639 165.369 671.678 166.451 671.678 167.785C671.678 169.12 672.639 170.201 673.826 170.201Z" fill="black"/>
<path d="M845.638 373.154H13.4228C6.0096 373.154 0 379.164 0 386.577C0 393.99 6.0096 400 13.4228 400H845.638C853.051 400 859.06 393.99 859.06 386.577C859.06 379.164 853.051 373.154 845.638 373.154Z" fill="#34B606"/>
<path d="M404.564 24.167L404.027 0.00596619" stroke="black"/>
<path d="M435.436 0H404.832V12.349H435.436V0Z" fill="#A928BE"/>
<path d="M443.49 9.12752L436.515 2.68457H450.464L443.49 9.12752Z" fill="#541A70"/>
<path d="M443.49 8.69837L450.47 15.0336H443.49H436.51L437.316 2.68457L443.49 8.69837Z" fill="#541A70"/>
<path d="M626.486 384.855L610.894 381.837" stroke="#1845B7" stroke-width="2" stroke-linecap="round"/>
<path d="M611.023 381.498L636.601 377.708" stroke="#1845B7" stroke-width="2" stroke-linecap="round"/>
<path d="M636.832 378.06L610.926 374.3" stroke="#1845B7" stroke-width="2" stroke-linecap="round"/>
<path d="M610.91 374.489L636.746 371.291" stroke="#1845B7" stroke-width="2" stroke-linecap="round"/>
<path d="M636.8 371.423L610.953 370.59" stroke="#1845B7" stroke-width="2" stroke-linecap="round"/>
<path d="M610.926 370.401L636.709 366.791" stroke="#1845B7" stroke-width="2" stroke-linecap="round"/>
<path d="M636.897 366.754L610.958 364.606" stroke="#1845B7" stroke-width="2" stroke-linecap="round"/>
<path d="M588.456 344.698C588.456 342.029 590.62 339.866 593.289 339.866H607.141C609.401 339.866 611.361 341.432 611.855 343.637L612.575 346.833C613.068 349.037 615.028 350.604 617.289 350.604H632.435C634.411 350.604 636.188 349.401 636.918 347.567L638.029 344.792C639.087 342.149 642.191 340.988 644.719 342.287L650.47 345.235L657.122 349.227C661.122 351.628 663.039 356.401 661.799 360.901C661.294 362.747 659.613 364.027 657.697 364.027H625.235H593.289C590.62 364.027 588.456 361.864 588.456 359.195V344.698Z" fill="#F7DD55"/>
<path d="M638.121 384.43H610.738C609.7 384.43 608.859 385.271 608.859 386.309C608.859 387.347 609.7 388.188 610.738 388.188H638.121C639.159 388.188 640 387.347 640 386.309C640 385.271 639.159 384.43 638.121 384.43Z" fill="#F7DD55"/>
<path d="M598.926 366.174C603.226 366.174 606.711 363.049 606.711 359.195C606.711 355.34 603.226 352.215 598.926 352.215C594.626 352.215 591.141 355.34 591.141 359.195C591.141 363.049 594.626 366.174 598.926 366.174Z" fill="black"/>
<path d="M648.859 366.174C653.159 366.174 656.644 363.049 656.644 359.195C656.644 355.34 653.159 352.215 648.859 352.215C644.559 352.215 641.074 355.34 641.074 359.195C641.074 363.049 644.559 366.174 648.859 366.174Z" fill="black"/>
<path d="M648.859 364.564C652.269 364.564 655.034 362.04 655.034 358.926C655.034 355.813 652.269 353.289 648.859 353.289C645.449 353.289 642.685 355.813 642.685 358.926C642.685 362.04 645.449 364.564 648.859 364.564Z" fill="#D9D9D9"/>
<path d="M598.926 364.564C602.336 364.564 605.101 362.04 605.101 358.926C605.101 355.813 602.336 353.289 598.926 353.289C595.516 353.289 592.752 355.813 592.752 358.926C592.752 362.04 595.516 364.564 598.926 364.564Z" fill="white"/>
<path d="M648.859 364.564C652.269 364.564 655.034 362.04 655.034 358.926C655.034 355.813 652.269 353.289 648.859 353.289C645.449 353.289 642.685 355.813 642.685 358.926C642.685 362.04 645.449 364.564 648.859 364.564Z" fill="white"/>
<path d="M648.591 363.49C651.259 363.49 653.423 361.567 653.423 359.195C653.423 356.822 651.259 354.899 648.591 354.899C645.922 354.899 643.758 356.822 643.758 359.195C643.758 361.567 645.922 363.49 648.591 363.49Z" fill="#420B47"/>
<path d="M637.477 342.613L634.158 340.241" stroke="#1845B7" stroke-linecap="round"/>
<path d="M635.259 337.55L632.317 342.458" stroke="#1845B7" stroke-linecap="round"/>
<path d="M588.456 345.503H597.047" stroke="#DD1D1D"/>
<path d="M588.456 349.799H597.047" stroke="#DD1D1D"/>
<path d="M588.456 347.651H597.047" stroke="#DD1D1D"/>
<path d="M606.98 357.852H633.825" stroke="#DD1D1D" stroke-linecap="round"/>
<path d="M599.195 363.49C601.863 363.49 604.027 361.567 604.027 359.195C604.027 356.822 601.863 354.899 599.195 354.899C596.526 354.899 594.362 356.822 594.362 359.195C594.362 361.567 596.526 363.49 599.195 363.49Z" fill="#420B47"/>
<path d="M453.691 368.859H437.584V373.154H453.691V368.859Z" fill="#8725B5"/>
<path d="M369.933 368.859H353.826V373.154H369.933V368.859Z" fill="#8725B5"/>
<path d="M220.134 369.396H204.027V373.691H220.134V369.396Z" fill="#8725B5"/>
<path d="M234.631 370.47H223.356V373.154H234.631V370.47Z" fill="#8725B5"/>
<path d="M41.3423 370.47H30.0671V373.154H41.3423V370.47Z" fill="#8725B5"/>
<path d="M103.624 205.638C103.624 204.451 102.663 203.49 101.477 203.49C100.29 203.49 99.3289 204.451 99.3289 205.638V208.859C99.3289 210.045 100.29 211.007 101.477 211.007C102.663 211.007 103.624 210.045 103.624 208.859V205.638Z" fill="#DD1D1D"/>
<path d="M157.94 205.099C157.889 203.914 156.888 202.994 155.703 203.044C154.518 203.095 153.598 204.096 153.648 205.281L153.785 208.5C153.836 209.685 154.837 210.605 156.022 210.554C157.207 210.504 158.127 209.502 158.077 208.317L157.94 205.099Z" fill="#DD1D1D"/>
<path d="M190.241 204.606C190.252 203.42 189.3 202.449 188.114 202.437C186.928 202.426 185.957 203.378 185.946 204.564L185.914 207.785C185.902 208.971 186.854 209.942 188.04 209.954C189.226 209.965 190.197 209.013 190.209 207.827L190.241 204.606Z" fill="#DD1D1D"/>
<path d="M71.4094 205.638C71.4094 204.451 70.4479 203.49 69.2617 203.49C68.0756 203.49 67.1141 204.451 67.1141 205.638V208.859C67.1141 210.045 68.0756 211.007 69.2617 211.007C70.4479 211.007 71.4094 210.045 71.4094 208.859V205.638Z" fill="#DD1D1D"/>
<path d="M568.156 186.344L568.156 186.344C567.091 184.842 565.01 184.487 563.508 185.552L426.882 282.395C425.38 283.46 425.025 285.541 426.09 287.043L426.09 287.043C427.155 288.546 429.236 288.9 430.738 287.835L567.364 190.993C568.867 189.928 569.221 187.847 568.156 186.344Z" fill="#1441E0"/>
<path d="M221.333 245.415L218.528 200.402" stroke="#774F00" stroke-width="8"/>
<path d="M300.134 278.121H286.174C283.802 278.121 281.879 280.044 281.879 282.416V296.376C281.879 298.748 283.802 300.671 286.174 300.671H300.134C302.506 300.671 304.43 298.748 304.43 296.376V282.416C304.43 280.044 302.506 278.121 300.134 278.121Z" fill="#0E802E"/>
<path d="M298.523 277.047H284.564C282.192 277.047 280.268 278.97 280.268 281.342V295.302C280.268 297.674 282.192 299.597 284.564 299.597H298.523C300.896 299.597 302.819 297.674 302.819 295.302V281.342C302.819 278.97 300.896 277.047 298.523 277.047Z" fill="#30BA0E"/>
<path d="M300.134 305.503H286.174C283.802 305.503 281.879 307.426 281.879 309.799V323.758C281.879 326.131 283.802 328.054 286.174 328.054H300.134C302.506 328.054 304.43 326.131 304.43 323.758V309.799C304.43 307.426 302.506 305.503 300.134 305.503Z" fill="#0E802E"/>
<path d="M298.523 304.43H284.564C282.192 304.43 280.268 306.353 280.268 308.725V322.685C280.268 325.057 282.192 326.98 284.564 326.98H298.523C300.896 326.98 302.819 325.057 302.819 322.685V308.725C302.819 306.353 300.896 304.43 298.523 304.43Z" fill="#30BA0E"/>
<path d="M300.134 333.96H286.174C283.802 333.96 281.879 335.883 281.879 338.255V352.215C281.879 354.587 283.802 356.51 286.174 356.51H300.134C302.506 356.51 304.43 354.587 304.43 352.215V338.255C304.43 335.883 302.506 333.96 300.134 333.96Z" fill="#0E802E"/>
<path d="M298.523 332.886H284.564C282.192 332.886 280.268 334.809 280.268 337.181V351.141C280.268 353.513 282.192 355.436 284.564 355.436H298.523C300.896 355.436 302.819 353.513 302.819 351.141V337.181C302.819 334.809 300.896 332.886 298.523 332.886Z" fill="#30BA0E"/>
<path d="M248.591 278.121H234.631C232.259 278.121 230.336 280.044 230.336 282.416V296.376C230.336 298.748 232.259 300.671 234.631 300.671H248.591C250.963 300.671 252.886 298.748 252.886 296.376V282.416C252.886 280.044 250.963 278.121 248.591 278.121Z" fill="#0E802E"/>
<path d="M246.98 277.047H233.02C230.648 277.047 228.725 278.97 228.725 281.342V295.302C228.725 297.674 230.648 299.597 233.02 299.597H246.98C249.352 299.597 251.275 297.674 251.275 295.302V281.342C251.275 278.97 249.352 277.047 246.98 277.047Z" fill="#30BA0E"/>
<path d="M248.591 305.503H234.631C232.259 305.503 230.336 307.426 230.336 309.799V323.758C230.336 326.131 232.259 328.054 234.631 328.054H248.591C250.963 328.054 252.886 326.131 252.886 323.758V309.799C252.886 307.426 250.963 305.503 248.591 305.503Z" fill="#0E802E"/>
<path d="M246.98 304.43H233.02C230.648 304.43 228.725 306.353 228.725 308.725V322.685C228.725 325.057 230.648 326.98 233.02 326.98H246.98C249.352 326.98 251.275 325.057 251.275 322.685V308.725C251.275 306.353 249.352 304.43 246.98 304.43Z" fill="#30BA0E"/>
<path d="M248.591 333.96H234.631C232.259 333.96 230.336 335.883 230.336 338.255V352.215C230.336 354.587 232.259 356.51 234.631 356.51H248.591C250.963 356.51 252.886 354.587 252.886 352.215V338.255C252.886 335.883 250.963 333.96 248.591 333.96Z" fill="#0E802E"/>
<path d="M246.98 332.886H233.02C230.648 332.886 228.725 334.809 228.725 337.181V351.141C228.725 353.513 230.648 355.436 233.02 355.436H246.98C249.352 355.436 251.275 353.513 251.275 351.141V337.181C251.275 334.809 249.352 332.886 246.98 332.886Z" fill="#30BA0E"/>
<path d="M347.919 278.121H333.96C331.588 278.121 329.664 280.044 329.664 282.416V296.376C329.664 298.748 331.588 300.671 333.96 300.671H347.919C350.292 300.671 352.215 298.748 352.215 296.376V282.416C352.215 280.044 350.292 278.121 347.919 278.121Z" fill="#0E802E"/>
<path d="M346.309 277.047H332.349C329.977 277.047 328.054 278.97 328.054 281.342V295.302C328.054 297.674 329.977 299.597 332.349 299.597H346.309C348.681 299.597 350.604 297.674 350.604 295.302V281.342C350.604 278.97 348.681 277.047 346.309 277.047Z" fill="#30BA0E"/>
<path d="M347.919 305.503H333.96C331.588 305.503 329.664 307.426 329.664 309.799V323.758C329.664 326.131 331.588 328.054 333.96 328.054H347.919C350.292 328.054 352.215 326.131 352.215 323.758V309.799C352.215 307.426 350.292 305.503 347.919 305.503Z" fill="#0E802E"/>
<path d="M346.309 304.43H332.349C329.977 304.43 328.054 306.353 328.054 308.725V322.685C328.054 325.057 329.977 326.98 332.349 326.98H346.309C348.681 326.98 350.604 325.057 350.604 322.685V308.725C350.604 306.353 348.681 304.43 346.309 304.43Z" fill="#30BA0E"/>
<path d="M347.919 333.96H333.96C331.588 333.96 329.664 335.883 329.664 338.255V352.215C329.664 354.587 331.588 356.51 333.96 356.51H347.919C350.292 356.51 352.215 354.587 352.215 352.215V338.255C352.215 335.883 350.292 333.96 347.919 333.96Z" fill="#0E802E"/>
<path d="M346.309 332.886H332.349C329.977 332.886 328.054 334.809 328.054 337.181V351.141C328.054 353.513 329.977 355.436 332.349 355.436H346.309C348.681 355.436 350.604 353.513 350.604 351.141V337.181C350.604 334.809 348.681 332.886 346.309 332.886Z" fill="#30BA0E"/>
<path d="M245.446 280.893L232.126 294.148C231.6 294.671 231.598 295.521 232.121 296.046C232.644 296.572 233.494 296.574 234.019 296.051L247.34 282.796C247.865 282.273 247.868 281.423 247.345 280.898C246.822 280.372 245.972 280.37 245.446 280.893Z" fill="#D9D9D9"/>
<path d="M297.225 308.061L283.904 321.316C283.379 321.839 283.377 322.689 283.9 323.214C284.423 323.74 285.273 323.742 285.798 323.219L299.119 309.964C299.644 309.441 299.646 308.591 299.123 308.065C298.601 307.54 297.751 307.538 297.225 308.061Z" fill="#D9D9D9"/>
<path d="M345.01 280.678L331.69 293.933C331.164 294.456 331.162 295.306 331.685 295.831C332.208 296.357 333.058 296.359 333.583 295.836L346.904 282.581C347.429 282.058 347.432 281.208 346.909 280.683C346.386 280.157 345.536 280.155 345.01 280.678Z" fill="#D9D9D9"/>
<path d="M345.01 335.98L331.69 349.235C331.164 349.758 331.162 350.608 331.685 351.133C332.208 351.659 333.058 351.661 333.583 351.138L346.904 337.883C347.429 337.36 347.432 336.51 346.909 335.985C346.386 335.459 345.536 335.457 345.01 335.98Z" fill="#D9D9D9"/>
<path d="M244.98 335.499L232.9 349.894C232.424 350.462 232.498 351.309 233.066 351.785C233.634 352.262 234.48 352.188 234.957 351.62L247.036 337.224C247.513 336.656 247.439 335.81 246.871 335.333C246.303 334.857 245.456 334.931 244.98 335.499Z" fill="#D9D9D9"/>
<path d="M232.867 282.013L245.757 295.687C246.265 296.226 247.115 296.251 247.654 295.743C248.194 295.234 248.219 294.385 247.71 293.845L234.82 280.171C234.312 279.632 233.462 279.607 232.923 280.115C232.383 280.624 232.358 281.473 232.867 282.013Z" fill="#D9D9D9"/>
<path d="M283.89 309.949L296.999 323.412C297.516 323.944 298.366 323.955 298.897 323.438C299.428 322.921 299.44 322.071 298.923 321.54L285.813 308.076C285.296 307.545 284.446 307.533 283.915 308.05C283.384 308.568 283.372 309.417 283.89 309.949Z" fill="#D9D9D9"/>
<path d="M331.659 282.013L344.549 295.687C345.057 296.226 345.907 296.251 346.446 295.743C346.986 295.234 347.011 294.385 346.502 293.845L333.612 280.171C333.104 279.632 332.254 279.607 331.715 280.115C331.175 280.624 331.15 281.473 331.659 282.013Z" fill="#D9D9D9"/>
<path d="M331.659 337.315L344.549 350.989C345.057 351.528 345.907 351.553 346.446 351.045C346.986 350.536 347.011 349.687 346.502 349.147L333.612 335.473C333.104 334.934 332.254 334.909 331.715 335.417C331.175 335.926 331.15 336.775 331.659 337.315Z" fill="#D9D9D9"/>
<path d="M233.253 336.062L244.032 351.456C244.457 352.063 245.294 352.21 245.901 351.785C246.508 351.36 246.656 350.523 246.231 349.916L235.452 334.522C235.027 333.915 234.19 333.768 233.583 334.193C232.975 334.618 232.828 335.455 233.253 336.062Z" fill="#D9D9D9"/>
<path d="M300.134 288.054C300.134 292.353 296.408 295.839 291.812 295.839C287.216 295.839 283.49 292.353 283.49 288.054C283.49 283.754 287.216 280.268 291.812 280.268C296.408 280.268 300.134 283.754 300.134 288.054Z" fill="#D9D9D9"/>
<path d="M347.919 315.436C347.919 319.736 344.193 323.221 339.597 323.221C335.001 323.221 331.275 319.736 331.275 315.436C331.275 311.137 335.001 307.651 339.597 307.651C344.193 307.651 347.919 311.137 347.919 315.436Z" fill="#D9D9D9"/>
<path d="M300.134 344.43C300.134 348.729 296.408 352.215 291.812 352.215C287.216 352.215 283.49 348.729 283.49 344.43C283.49 340.13 287.216 336.644 291.812 336.644C296.408 336.644 300.134 340.13 300.134 344.43Z" fill="#D9D9D9"/>
<path d="M248.591 315.436C248.591 319.736 244.864 323.221 240.268 323.221C235.672 323.221 231.946 319.736 231.946 315.436C231.946 311.137 235.672 307.651 240.268 307.651C244.864 307.651 248.591 311.137 248.591 315.436Z" fill="#D9D9D9"/>
<path d="M291.812 293.691C295.222 293.691 297.987 291.167 297.987 288.054C297.987 284.94 295.222 282.416 291.812 282.416C288.402 282.416 285.638 284.94 285.638 288.054C285.638 291.167 288.402 293.691 291.812 293.691Z" fill="#30BA0E"/>
<path d="M339.597 321.074C343.007 321.074 345.772 318.55 345.772 315.436C345.772 312.323 343.007 309.799 339.597 309.799C336.187 309.799 333.423 312.323 333.423 315.436C333.423 318.55 336.187 321.074 339.597 321.074Z" fill="#30BA0E"/>
<path d="M291.812 350.067C295.222 350.067 297.987 347.543 297.987 344.43C297.987 341.316 295.222 338.792 291.812 338.792C288.402 338.792 285.638 341.316 285.638 344.43C285.638 347.543 288.402 350.067 291.812 350.067Z" fill="#30BA0E"/>
<path d="M240.268 321.074C243.679 321.074 246.443 318.55 246.443 315.436C246.443 312.323 243.679 309.799 240.268 309.799C236.858 309.799 234.094 312.323 234.094 315.436C234.094 318.55 236.858 321.074 240.268 321.074Z" fill="#30BA0E"/>
</g>
<defs>
<clipPath id="clip0_104_5">
<rect width="869.262" height="400" fill="white"/>
</clipPath>
</defs>
</svg>
