<svg width="17" height="23" viewBox="0 0 17 23" fill="none" xmlns="http://www.w3.org/2000/svg">
<path d="M17 8.21429C17 12.7509 13.1944 23 8.5 23C3.80558 23 0 12.7509 0 8.21429C0 3.67766 3.80558 0 8.5 0C13.1944 0 17 3.67766 17 8.21429Z" fill="black"/>
<ellipse cx="8.50011" cy="6.02378" rx="3.96667" ry="3.83333" fill="black"/>
<path d="M16 8.5C16 12.6421 12.6421 22 8.5 22C4.35786 22 1 12.6421 1 8.5C1 4.35786 4.35786 1 8.5 1C12.6421 1 16 4.35786 16 8.5Z" fill="#14FF00"/>
<circle cx="8.5" cy="6.5" r="4.5" fill="black"/>
<circle cx="8.5" cy="6.5" r="3.5" fill="#D9D9D9"/>
</svg>